<svg aria-hidden="true" style="position: absolute; width: 0; height: 0; overflow: hidden;" version="1.1" xmlns="http://www.w3.org/2000/svg" xmlns:xlink="http://www.w3.org/1999/xlink">
<defs>
<symbol id="icon-align-center" viewBox="0 0 20 20">
<path d="M1 1h18v2h-18v-2zM1 9h18v2h-18v-2zM1 17h18v2h-18v-2zM4 5h12v2h-12v-2zM4 13h12v2h-12v-2z"></path>
</symbol>
<symbol id="icon-Android-logo" viewBox="0 0 32 32">
<path fill="#b2b2b2" style="fill: var(--color1, #b2b2b2)" d="M2.228 31.366l14.826-15.377-14.814-15.35c-0.396 0.239-0.641 0.792-0.641 1.517v27.709c0.005 0.724 0.241 1.237 0.628 1.502z"></path>
<path fill="#b2b2b2" style="fill: var(--color1, #b2b2b2)" d="M17.585 15.564l4.416-4.581-17.984-10.228c-0.303-0.182-0.647-0.279-0.997-0.279l14.565 15.089z"></path>
<path fill="#b2b2b2" style="fill: var(--color1, #b2b2b2)" d="M17.586 16.416l-14.61 15.153c0.367 0.006 0.728-0.093 1.043-0.287l18.020-10.256-4.453-4.611z"></path>
<path fill="#b2b2b2" style="fill: var(--color1, #b2b2b2)" d="M28.517 14.695l-5.985-3.41-4.537 4.706 4.571 4.736 5.949-3.401c1.265-0.722 1.265-1.912 0.002-2.631z"></path>
</symbol>
<symbol id="icon-Apple-logo" viewBox="0 0 32 32">
<path fill="#b2b2b2" style="fill: var(--color1, #b2b2b2)" d="M24.917 17.346c0.031-2.404 1.322-4.678 3.369-5.937-1.292-1.845-3.456-3.015-5.707-3.085-2.401-0.252-4.729 1.437-5.952 1.437-1.247 0-3.131-1.412-5.159-1.37-2.644 0.085-5.109 1.589-6.395 3.9-2.765 4.787-0.703 11.823 1.946 15.693 1.325 1.895 2.874 4.012 4.901 3.937 1.983-0.082 2.724-1.265 5.118-1.265 2.372 0 3.067 1.265 5.134 1.217 2.128-0.035 3.469-1.903 4.748-3.816 0.952-1.35 1.685-2.842 2.171-4.422-2.501-1.058-4.171-3.575-4.174-6.29z"></path>
<path fill="#b2b2b2" style="fill: var(--color1, #b2b2b2)" d="M21.011 5.779c1.16-1.393 1.732-3.183 1.594-4.991-1.773 0.186-3.41 1.033-4.586 2.373-1.15 1.309-1.748 3.068-1.635 4.806 1.773 0.018 3.517-0.806 4.628-2.188z"></path>
</symbol>
<symbol id="icon-Butterfly" viewBox="0 0 32 32">
<path fill="#ff6428" style="fill: var(--color2, #ff6428)" d="M16.171 16.83c-0.439 8.389-7.495 15.072-16.171 15.17v-32c8.676 0.098 15.732 6.781 16.171 15.17 0.433-8.279 7.31-14.896 15.829-15.163v31.985c-8.519-0.267-15.396-6.884-15.829-15.163z"></path>
</symbol>
<symbol id="icon-Facebook" viewBox="0 0 32 32">
<path d="M17.005 26.021v-9.495h3.074l0.46-3.701h-3.535v-2.363c0-1.071 0.287-1.802 1.769-1.802l1.89-0.001v-3.31c-0.327-0.045-1.449-0.146-2.754-0.146-2.725 0-4.591 1.724-4.591 4.891v2.729h-3.082v3.701h3.082v9.495l3.686-0z"></path>
</symbol>
<symbol id="icon-group-01" viewBox="0 0 32 32">
<path fill="#a4a4a4" style="fill: var(--color3, #a4a4a4)" d="M18.96 2.96c0.92-0.92 2.22-1.293 3.707-1.293h2.667c1.487 0 2.787 0.373 3.707 1.293s1.293 2.22 1.293 3.707v2.667c0 1.488-0.373 2.787-1.293 3.707s-2.22 1.293-3.707 1.293h-2.667c-1.488 0-2.787-0.373-3.707-1.293s-1.293-2.22-1.293-3.707v-2.667c0-1.487 0.372-2.787 1.293-3.707zM20.374 4.374c-0.413 0.413-0.707 1.114-0.707 2.293v2.667c0 1.179 0.294 1.88 0.707 2.293s1.114 0.707 2.293 0.707h2.667c1.179 0 1.88-0.294 2.293-0.707s0.707-1.114 0.707-2.293v-2.667c0-1.179-0.294-1.88-0.707-2.293s-1.114-0.707-2.293-0.707h-2.667c-1.179 0-1.88 0.294-2.293 0.707z"></path>
<path fill="#a4a4a4" style="fill: var(--color3, #a4a4a4)" d="M2.96 18.959c0.92-0.92 2.22-1.293 3.707-1.293h2.667c1.487 0 2.787 0.373 3.707 1.293s1.293 2.22 1.293 3.707v2.667c0 1.488-0.373 2.787-1.293 3.707s-2.22 1.293-3.707 1.293h-2.667c-1.487 0-2.787-0.373-3.707-1.293s-1.293-2.22-1.293-3.707v-2.667c0-1.488 0.373-2.787 1.293-3.707zM4.374 20.374c-0.413 0.413-0.707 1.114-0.707 2.293v2.667c0 1.179 0.294 1.88 0.707 2.293s1.114 0.707 2.293 0.707h2.667c1.179 0 1.88-0.294 2.293-0.707s0.707-1.114 0.707-2.293v-2.667c0-1.179-0.294-1.88-0.707-2.293s-1.114-0.707-2.293-0.707h-2.667c-1.179 0-1.88 0.294-2.293 0.707z"></path>
<path fill="#a4a4a4" style="fill: var(--color3, #a4a4a4)" d="M8 3.667c-2.393 0-4.333 1.94-4.333 4.333s1.94 4.333 4.333 4.333c2.393 0 4.333-1.94 4.333-4.333s-1.94-4.333-4.333-4.333zM1.667 8c0-3.498 2.836-6.333 6.333-6.333s6.333 2.836 6.333 6.333c0 3.498-2.836 6.333-6.333 6.333s-6.333-2.835-6.333-6.333z"></path>
<path fill="#a4a4a4" style="fill: var(--color3, #a4a4a4)" d="M24 19.667c-2.393 0-4.333 1.94-4.333 4.333s1.94 4.333 4.333 4.333c2.393 0 4.333-1.94 4.333-4.333s-1.94-4.333-4.333-4.333zM17.667 24c0-3.498 2.835-6.333 6.333-6.333s6.333 2.836 6.333 6.333c0 3.498-2.836 6.333-6.333 6.333s-6.333-2.835-6.333-6.333z"></path>
</symbol>
<symbol id="icon-group-02" viewBox="0 0 32 32">
<path fill="#a4a4a4" style="fill: var(--color3, #a4a4a4)" d="M2.473 4.913c1.076-1.931 3.15-3.246 5.527-3.246h12c0.552 0 1 0.448 1 1v13.333c0 2.019-1.648 3.667-3.667 3.667h-1.333c-0.552 0-1-0.448-1-1s0.448-1 1-1h1.333c0.914 0 1.667-0.752 1.667-1.667v-12.333h-11c-1.623 0-3.043 0.898-3.78 2.22-0.269 0.482-0.878 0.655-1.36 0.387s-0.655-0.878-0.387-1.36z"></path>
<path fill="#a4a4a4" style="fill: var(--color3, #a4a4a4)" d="M19 6.667c0-0.552 0.448-1 1-1h2.453c1.325 0 2.53 0.717 3.185 1.845l0.003 0.006 2.28 3.987c0.177 0.309 0.176 0.69-0.003 0.998s-0.508 0.498-0.865 0.498h-1.72c-0.181 0-0.333 0.152-0.333 0.333v4c0 0.181 0.152 0.333 0.333 0.333h4c0.552 0 1 0.448 1 1v4c0 2.766-2.234 5-5 5h-1.333c-0.552 0-1-0.448-1-1 0-0.914-0.752-1.667-1.667-1.667s-1.667 0.752-1.667 1.667c0 0.552-0.448 1-1 1h-5.333c-0.552 0-1-0.448-1-1 0-0.914-0.752-1.667-1.667-1.667s-1.667 0.752-1.667 1.667c0 0.552-0.448 1-1 1h-1.333c-2.766 0-5-2.234-5-5 0-0.552 0.448-1 1-1s1 0.448 1 1c0 1.661 1.339 3 3 3h0.472c0.437-1.536 1.855-2.667 3.528-2.667s3.090 1.131 3.528 2.667h3.612c0.437-1.536 1.855-2.667 3.528-2.667s3.090 1.131 3.527 2.667h0.473c1.661 0 3-1.339 3-3v-3h-3c-1.286 0-2.333-1.048-2.333-2.333v-4c0-1.284 1.046-2.331 2.329-2.333l-1.421-2.485c-0-0.001-0.001-0.002-0.002-0.002-0.306-0.525-0.86-0.846-1.454-0.846h-1.453v8.333c0 2.019-1.648 3.667-3.667 3.667h-1.333c-0.552 0-1-0.448-1-1s0.448-1 1-1h1.333c0.914 0 1.667-0.752 1.667-1.667v-9.333z"></path>
<path fill="#a4a4a4" style="fill: var(--color3, #a4a4a4)" d="M10.667 25c-0.921 0-1.667 0.746-1.667 1.667s0.746 1.667 1.667 1.667c0.92 0 1.667-0.746 1.667-1.667s-0.746-1.667-1.667-1.667zM7 26.667c0-2.025 1.642-3.667 3.667-3.667s3.667 1.642 3.667 3.667c0 2.025-1.642 3.667-3.667 3.667s-3.667-1.642-3.667-3.667z"></path>
<path fill="#a4a4a4" style="fill: var(--color3, #a4a4a4)" d="M21.334 25c-0.921 0-1.667 0.746-1.667 1.667s0.746 1.667 1.667 1.667c0.92 0 1.667-0.746 1.667-1.667s-0.746-1.667-1.667-1.667zM17.667 26.667c0-2.025 1.642-3.667 3.667-3.667s3.667 1.642 3.667 3.667c0 2.025-1.642 3.667-3.667 3.667s-3.667-1.642-3.667-3.667z"></path>
<path fill="#a4a4a4" style="fill: var(--color3, #a4a4a4)" d="M25.333 13c-0.181 0-0.333 0.152-0.333 0.333v4c0 0.181 0.152 0.333 0.333 0.333h3v-1.402l-1.861-3.265h-1.139zM23 13.333c0-1.286 1.048-2.333 2.333-2.333h1.72c0.359 0 0.691 0.193 0.869 0.505l2.28 4c0.086 0.151 0.131 0.322 0.131 0.495v2.667c0 0.552-0.448 1-1 1h-4c-1.286 0-2.333-1.048-2.333-2.333v-4z"></path>
<path fill="#a4a4a4" style="fill: var(--color3, #a4a4a4)" d="M1.667 10.667c0-0.552 0.448-1 1-1h8c0.552 0 1 0.448 1 1s-0.448 1-1 1h-8c-0.552 0-1-0.448-1-1z"></path>
<path fill="#a4a4a4" style="fill: var(--color3, #a4a4a4)" d="M1.667 14.667c0-0.552 0.448-1 1-1h5.333c0.552 0 1 0.448 1 1s-0.448 1-1 1h-5.333c-0.552 0-1-0.448-1-1z"></path>
<path fill="#a4a4a4" style="fill: var(--color3, #a4a4a4)" d="M1.667 18.667c0-0.552 0.448-1 1-1h2.667c0.552 0 1 0.448 1 1s-0.448 1-1 1h-2.667c-0.552 0-1-0.448-1-1z"></path>
</symbol>
<symbol id="icon-group-03" viewBox="0 0 32 32">
<path fill="#a4a4a4" style="fill: var(--color3, #a4a4a4)" d="M8.346 11.333c-2.208 0-4.013 1.806-4.013 4.013v4.101c0.724-0.288 1.511-0.448 2.333-0.448 3.499 0 6.333 2.834 6.333 6.333 0 1.077-0.274 2.105-0.764 3h11.418c2.208 0 4.013-1.806 4.013-4.013v-0.587h-1.533c-1.879 0-3.704-1.374-3.876-3.404-0.108-1.15 0.33-2.224 1.088-2.969 0.682-0.696 1.617-1.093 2.628-1.093h1.693v-0.92c0-2.208-1.806-4.013-4.013-4.013h-15.307zM2.333 15.347c0-3.312 2.701-6.013 6.013-6.013h15.307c3.312 0 6.013 2.701 6.013 6.013v1.92c0 0.552-0.448 1-1 1h-2.693c-0.479 0-0.9 0.186-1.204 0.498l-0.018 0.018c-0.355 0.346-0.553 0.839-0.503 1.363l0.001 0.012c0.070 0.847 0.885 1.576 1.883 1.576h2.533c0.552 0 1 0.448 1 1v1.587c0 3.312-2.701 6.013-6.013 6.013h-13.48c-0.42 0-0.796-0.263-0.94-0.658s-0.025-0.838 0.297-1.108c0.324-0.272 0.61-0.609 0.832-0.991l0.013-0.021c0.397-0.644 0.624-1.409 0.624-2.222 0-2.394-1.939-4.333-4.333-4.333-1.015 0-1.958 0.356-2.71 0.955-0.3 0.239-0.711 0.286-1.057 0.119s-0.566-0.517-0.566-0.901v-5.827z"></path>
<path fill="#a4a4a4" style="fill: var(--color3, #a4a4a4)" d="M18.8 5.267c0-1.077-1.076-1.816-2.072-1.438l-10.587 4c-1.089 0.412-1.807 1.452-1.807 2.625v6.093c0 0.552-0.448 1-1 1s-1-0.448-1-1v-6.093c0-2 1.229-3.787 3.099-4.495l10.586-4c2.311-0.876 4.781 0.838 4.781 3.308v5.067c0 0.552-0.448 1-1 1s-1-0.448-1-1v-5.067z"></path>
<path fill="#a4a4a4" style="fill: var(--color3, #a4a4a4)" d="M25.971 18.267c-0.479 0-0.9 0.186-1.203 0.498l-0.018 0.018c-0.355 0.346-0.553 0.839-0.503 1.363l0.001 0.012c0.070 0.847 0.885 1.576 1.883 1.576h2.59c0.215-0.014 0.356-0.182 0.356-0.36v-2.747c0-0.177-0.141-0.346-0.356-0.36h-2.75zM23.344 17.36c0.682-0.696 1.617-1.093 2.628-1.093h2.773c0.012 0 0.024 0 0.036 0.001 1.271 0.045 2.298 1.074 2.298 2.359v2.747c0 1.286-1.027 2.314-2.298 2.359-0.012 0-0.024 0.001-0.036 0.001h-2.613c-1.879 0-3.704-1.374-3.876-3.404-0.108-1.15 0.33-2.224 1.088-2.969z"></path>
<path fill="#a4a4a4" style="fill: var(--color3, #a4a4a4)" d="M8.333 16c0-0.552 0.448-1 1-1h9.333c0.552 0 1 0.448 1 1s-0.448 1-1 1h-9.333c-0.552 0-1-0.448-1-1z"></path>
<path fill="#a4a4a4" style="fill: var(--color3, #a4a4a4)" d="M6.666 21c-1.015 0-1.958 0.356-2.71 0.955l-0.002 0.001c-0.994 0.788-1.622 2.009-1.622 3.377 0 0.813 0.227 1.578 0.625 2.222l0.008 0.014h-0c0.746 1.255 2.119 2.098 3.701 2.098 1.097 0 2.086-0.4 2.838-1.077 0.009-0.008 0.017-0.015 0.026-0.023 0.324-0.272 0.61-0.609 0.832-0.991l0.013-0.021c0.397-0.644 0.624-1.409 0.624-2.222 0-2.394-1.939-4.333-4.333-4.333zM2.711 20.391c1.088-0.867 2.465-1.391 3.956-1.391 3.499 0 6.333 2.834 6.333 6.333 0 1.183-0.33 2.307-0.916 3.261-0.333 0.569-0.761 1.077-1.255 1.494-1.113 0.996-2.572 1.578-4.163 1.578-2.309 0-4.321-1.234-5.415-3.069-0.587-0.954-0.918-2.080-0.918-3.265 0-1.992 0.918-3.784 2.378-4.943z"></path>
<path fill="#a4a4a4" style="fill: var(--color3, #a4a4a4)" d="M9.482 23.347c0.375 0.405 0.35 1.038-0.055 1.413l-2.84 2.627c-0.394 0.365-1.006 0.353-1.386-0.027l-1.32-1.32c-0.391-0.39-0.391-1.024 0-1.414s1.024-0.39 1.414 0l0.64 0.64 2.134-1.974c0.405-0.375 1.038-0.35 1.413 0.055z"></path>
</symbol>
<symbol id="icon-Instagram" viewBox="0 0 32 32">
<path d="M12.864 15.612c0-1.796 1.404-3.253 3.137-3.253s3.137 1.456 3.137 3.253c0 1.796-1.405 3.253-3.137 3.253s-3.137-1.457-3.137-3.253zM11.168 15.612c0 2.767 2.164 5.010 4.833 5.010s4.833-2.243 4.833-5.010c0-2.767-2.164-5.010-4.833-5.010s-4.833 2.243-4.833 5.010zM19.895 10.403c-0 0.232 0.066 0.458 0.19 0.651s0.3 0.343 0.507 0.431c0.206 0.089 0.433 0.112 0.653 0.067s0.42-0.157 0.578-0.32c0.158-0.164 0.266-0.372 0.309-0.599s0.021-0.463-0.064-0.677c-0.085-0.214-0.23-0.397-0.416-0.526s-0.404-0.197-0.627-0.198h-0c-0.299 0-0.587 0.123-0.798 0.343s-0.331 0.517-0.331 0.827v0zM12.198 23.555c-0.918-0.043-1.416-0.202-1.748-0.336-0.439-0.177-0.753-0.389-1.083-0.73s-0.534-0.666-0.704-1.122c-0.129-0.344-0.282-0.861-0.324-1.812-0.046-1.029-0.055-1.337-0.055-3.943s0.010-2.914 0.055-3.943c0.042-0.951 0.196-1.467 0.324-1.812 0.171-0.456 0.375-0.781 0.704-1.122s0.642-0.553 1.083-0.73c0.331-0.134 0.83-0.292 1.748-0.336 0.992-0.047 1.29-0.057 3.802-0.057s2.811 0.010 3.803 0.057c0.918 0.043 1.416 0.203 1.748 0.336 0.439 0.177 0.753 0.389 1.083 0.73s0.533 0.667 0.704 1.122c0.129 0.344 0.282 0.861 0.324 1.812 0.046 1.029 0.055 1.338 0.055 3.943s-0.009 2.914-0.055 3.943c-0.042 0.951-0.195 1.468-0.324 1.812-0.171 0.456-0.375 0.781-0.704 1.122s-0.643 0.553-1.083 0.73c-0.331 0.134-0.83 0.292-1.748 0.336-0.992 0.047-1.29 0.057-3.803 0.057s-2.811-0.009-3.802-0.057v0zM12.12 5.914c-1.002 0.047-1.687 0.212-2.285 0.453-0.619 0.249-1.143 0.583-1.667 1.125s-0.845 1.087-1.086 1.729c-0.233 0.62-0.392 1.33-0.437 2.369-0.046 1.040-0.057 1.373-0.057 4.023s0.011 2.982 0.057 4.023c0.046 1.039 0.205 1.748 0.437 2.368 0.24 0.642 0.562 1.187 1.086 1.728s1.048 0.876 1.667 1.125c0.599 0.241 1.283 0.406 2.285 0.453 1.004 0.047 1.324 0.059 3.88 0.059s2.877-0.011 3.88-0.059c1.002-0.047 1.686-0.212 2.284-0.453 0.619-0.25 1.143-0.583 1.667-1.125s0.845-1.087 1.086-1.728c0.233-0.62 0.392-1.33 0.437-2.368 0.046-1.041 0.056-1.373 0.056-4.023s-0.011-2.982-0.056-4.023c-0.046-1.039-0.205-1.749-0.437-2.369-0.241-0.642-0.563-1.185-1.086-1.729s-1.048-0.876-1.667-1.125c-0.599-0.241-1.283-0.407-2.284-0.453-1.004-0.047-1.324-0.059-3.88-0.059s-2.877 0.011-3.881 0.059z"></path>
</symbol>
<symbol id="icon-location" viewBox="0 0 32 32">
<path fill="none" stroke="#666" style="stroke: var(--color4, #666)" stroke-linejoin="miter" stroke-linecap="butt" stroke-miterlimit="4" stroke-width="2" d="M16 17.907c2.297 0 4.16-1.862 4.16-4.16s-1.863-4.16-4.16-4.16-4.16 1.863-4.16 4.16c0 2.298 1.863 4.16 4.16 4.16z"></path>
<path fill="none" stroke="#666" style="stroke: var(--color4, #666)" stroke-linejoin="miter" stroke-linecap="butt" stroke-miterlimit="4" stroke-width="2" d="M4.827 11.32c2.627-11.547 19.733-11.533 22.347 0.013 1.533 6.773-2.68 12.507-6.373 16.053-2.68 2.587-6.92 2.587-9.613 0-3.68-3.547-7.893-9.293-6.36-16.067z"></path>
</symbol>
<symbol id="icon-sms" viewBox="0 0 32 32">
<path fill="none" stroke="#666" style="stroke: var(--color4, #666)" stroke-linejoin="round" stroke-linecap="round" stroke-miterlimit="10" stroke-width="2" d="M22.667 27.333h-13.333c-4 0-6.667-2-6.667-6.667v-9.333c0-4.667 2.667-6.667 6.667-6.667h13.333c4 0 6.667 2 6.667 6.667v9.333c0 4.667-2.667 6.667-6.667 6.667z"></path>
<path fill="none" stroke="#666" style="stroke: var(--color4, #666)" stroke-linejoin="round" stroke-linecap="round" stroke-miterlimit="10" stroke-width="2" d="M22.667 12l-4.173 3.333c-1.373 1.093-3.627 1.093-5 0l-4.16-3.333"></path>
</symbol>
<symbol id="icon-Twitter" viewBox="0 0 32 32">
<path d="M23.38 12.238c0 0.171 0 0.342 0 0.488 0 5.050-3.718 10.88-10.494 10.88-2.094 0-4.024-0.634-5.671-1.708 0.282 0.024 0.588 0.049 0.871 0.049 1.718 0 3.318-0.61 4.588-1.634-1.624-0.024-2.988-1.147-3.435-2.659 0.235 0.049 0.447 0.073 0.706 0.073 0.329 0 0.659-0.049 0.965-0.146-1.694-0.341-2.965-1.878-2.965-3.732 0-0.024 0-0.024 0-0.049 0.494 0.293 1.059 0.464 1.671 0.488-0.988-0.683-1.647-1.854-1.647-3.196 0-0.707 0.188-1.366 0.494-1.927 1.812 2.317 4.541 3.83 7.6 4.001-0.071-0.268-0.094-0.585-0.094-0.878 0-2.122 1.647-3.83 3.694-3.83 1.059 0 2.024 0.463 2.682 1.195 0.847-0.171 1.624-0.488 2.353-0.927-0.282 0.903-0.871 1.634-1.624 2.122 0.753-0.098 1.459-0.293 2.118-0.61-0.471 0.781-1.082 1.464-1.812 2z"></path>
</symbol>
</defs>
</svg>
